:SAMPLES-PER-SECOND 30
:FULLY-SPECIFIED
:DEGREES
409
root  41.0988 32.4342 -69.4044 9.49729 -52.9695 -2.51514
RightUpLeg  -30.8907 -10.1994 -2.5335
RightLeg  33.6965 -8.91203 -5.12346
RightFoot  -4.23677 0.0117298 0.694774
RightToes  -27.5976 -0.127732 -0.234927
Spine  5.41439 -1.70287 0.879335
Spine1  10.0426 -4.45155 2.81487
HEad  9.73522 38.297 -6.10039
LeftShoulder1  0 -2.42657e-020 -4.95415e-022
LeftArm  -21.3541 2.06354 -88.3967
LeftForeArm  53.8114 -20.5334 -3.74781
LeftHand  0.263042 -10.6344 -3.19775
RightShoulder  0 2.42657e-020 1.07489e-018
RightArm  -55.1756 -19.7769 83.4697
RightForeArm  69.1655 9.61857 1.64654
RightHand  -1.45977 21.4416 -7.3312
LeftUpLeg  -4.74399 0.883324 4.15492
LeftLeg  22.0018 -3.85963 -1.27938
LeftFoot  -13.9319 0.113553 0.929356
LeftToes  -18.662 8.72033e-007 1.17809e-007
410
root  40.5164 32.3915 -69.4699 9.70369 -53.9061 -2.39757
RightUpLeg  -31.8804 -10.8868 -3.33253
RightLeg  34.1644 -9.27572 -5.42964
RightFoot  -5.03369 0.022942 0.899608
RightToes  -24.9181 -0.110538 -0.215141
Spine  5.39512 -2.00603 0.957455
Spine1  10.0371 -5.07312 3.03506
HEad  8.34982 40.4481 -8.41499
LeftShoulder1  0 -2.42657e-020 -4.95415e-022
LeftArm  -20.9729 2.302 -87.8208
LeftForeArm  53.3597 -21.2072 -3.88486
LeftHand  0.233149 -10.6895 -2.86352
RightShoulder  0 2.42657e-020 1.07489e-018
RightArm  -60.4513 -23.0878 82.6714
RightForeArm  70.691 8.48553 1.4387
RightHand  -1.3805 20.5021 -7.25479
LeftUpLeg  -3.17038 1.34304 4.59313
LeftLeg  20.1348 -3.44096 -1.01785
LeftFoot  -13.6312 0.0965939 0.808165
LeftToes  -19.4033 8.72033e-007 1.17809e-007
411
root  39.8195 32.3243 -69.5527 9.94208 -54.55 -2.21605
RightUpLeg  -32.7646 -11.9042 -4.0137
RightLeg  35.0266 -9.09264 -5.50884
RightFoot  -5.56741 0.0305698 1.00638
RightToes  -24.3341 -0.106914 -0.210723
Spine  5.39644 -2.32063 1.04103
Spine1  10.0586 -5.65555 3.13537
HEad  6.82683 42.3888 -10.5399
LeftShoulder1  0 -2.42657e-020 -4.95415e-022
LeftArm  -20.3315 2.59586 -87.1331
LeftForeArm  52.591 -21.884 -4.0244
LeftHand  0.225774 -10.6745 -2.78807
RightShoulder  0 2.42657e-020 1.07489e-018
RightArm  -62.8996 -25.9491 81.6367
RightForeArm  68.7191 8.38541 1.42588
RightHand  -1.27139 20.2644 -6.73761
LeftUpLeg  -1.46103 2.09197 5.26747
LeftLeg  18.0074 -3.55867 -0.910239
LeftFoot  -13.0941 0.092029 0.801849
LeftToes  -20.9309 8.72033e-007 1.17809e-007
412
root  39.0146 32.2226 -69.6737 10.2543 -55.0635 -2.0117
RightUpLeg  -33.5716 -13.5667 -4.25326
RightLeg  36.2606 -8.25418 -5.25461
RightFoot  -6.42849 0.0399449 1.08895
RightToes  -25.249 -0.104703 -0.211288
Spine  5.3945 -2.59155 1.13648
Spine1  10.064 -6.12065 3.19236
HEad  5.43251 43.9343 -12.3853
LeftShoulder1  0 -2.42657e-020 -4.95415e-022
LeftArm  -19.8569 2.87037 -86.4791
LeftForeArm  52.0635 -22.3139 -4.11381
LeftHand  0.233765 -10.854 -2.83196
RightShoulder  0 2.42657e-020 1.07489e-018
RightArm  -64.0328 -28.1721 80.7173
RightForeArm  66.2107 9.17787 1.57454
RightHand  -1.18244 20.6662 -6.11043
LeftUpLeg  0.219461 2.92042 6.16358
LeftLeg  15.9359 -3.89118 -0.8463
LeftFoot  -12.3383 0.0932225 0.823744
LeftToes  -23.4054 8.72033e-007 1.17809e-007
413
root  38.1026 32.0845 -69.8533 10.7217 -55.4393 -1.86574
RightUpLeg  -34.3526 -16.071 -3.73519
RightLeg  38.0678 -6.9947 -4.78049
RightFoot  -8.06743 0.0581631 1.20244
RightToes  -24.549 -0.10363 -0.212353
Spine  5.33781 -2.85168 1.26113
Spine1  9.96048 -6.55363 3.2836
HEad  4.30773 45.1595 -13.9882
LeftShoulder1  0 -2.42657e-020 -4.95415e-022
LeftArm  -19.7774 3.21454 -85.9404
LeftForeArm  52.0403 -22.4622 -4.14449
LeftHand  0.228667 -10.8479 -2.77965
RightShoulder  0 2.42657e-020 1.07489e-018
RightArm  -62.033 -29.955 79.9949
RightForeArm  63.0861 11.623 2.02588
RightHand  -1.06006 20.4214 -5.51195
LeftUpLeg  1.64295 3.95754 7.38253
LeftLeg  14.3116 -4.58237 -0.860712
LeftFoot  -11.4983 0.0907085 0.900934
LeftToes  -26.7118 8.72033e-007 1.17809e-007
414
root  37.0843 31.909 -70.0757 11.2848 -55.7778 -1.8517
RightUpLeg  -34.7517 -19.3682 -2.40492
RightLeg  40.0628 -5.59867 -4.13185
RightFoot  -9.55706 0.0666528 1.17495
RightToes  -24.231 -0.106279 -0.20994
Spine  5.23949 -3.07327 1.42022
Spine1  9.78172 -6.93712 3.48317
HEad  3.39102 46.1274 -15.3631
LeftShoulder1  0 -2.42657e-020 -4.95415e-022
LeftArm  -20.2324 3.77254 -85.5862
LeftForeArm  52.0712 -22.4769 -4.14748
LeftHand  0.230252 -10.8942 -2.85591
RightShoulder  0 2.42657e-020 1.07489e-018
RightArm  -57.6647 -30.9706 79.0889
RightForeArm  58.8683 14.1995 2.51217
RightHand  -0.97391 20.6362 -4.97723
LeftUpLeg  2.60307 4.56581 8.7783
LeftLeg  13.8481 -4.89249 -0.877797
LeftFoot  -10.8278 0.0852382 0.899372
LeftToes  -30.2719 8.72033e-007 1.17809e-007
415
root  35.9431 31.6892 -70.3685 11.5801 -56.5373 -1.65045
RightUpLeg  -34.724 -21.8371 -0.910875
RightLeg  42.0216 -4.67397 -3.71214
RightFoot  -11.0133 0.0756837 1.16266
RightToes  -25.9788 -0.117233 -0.223069
Spine  5.12366 -3.08031 1.47121
Spine1  9.6198 -6.8761 3.46746
HEad  2.55118 46.8499 -16.6114
LeftShoulder1  0 -2.42657e-020 -4.95415e-022
LeftArm  -20.7857 4.70997 -85.0686
LeftForeArm  51.5094 -22.7588 -4.20695
LeftHand  0.23981 -10.7358 -2.88938
RightShoulder  0 2.42657e-020 1.07489e-018
RightArm  -54.7758 -30.7077 78.5199
RightForeArm  55.1229 15.9053 2.84189
RightHand  -0.87725 20.3183 -4.52408
LeftUpLeg  3.19569 4.77125 10.0885
LeftLeg  14.7895 -4.55616 -0.89522
LeftFoot  -10.241 0.0702194 0.783601
LeftToes  -33.9786 8.72033e-007 1.17809e-007
416
root  34.6665 31.4477 -70.7856 12.8464 -58.5749 -2.63339
RightUpLeg  -35.0229 -21.4176 1.04638
RightLeg  43.858 -3.88417 -3.3025
RightFoot  -11.9986 0.0726769 1.06916
RightToes  -26.6765 -0.121718 -0.228216
Spine  5.02506 -2.64285 1.58519
Spine1  9.51042 -5.96787 3.62467
HEad  1.26458 47.6627 -18.3858
LeftShoulder1  0 -2.42657e-020 -4.95415e-022
LeftArm  -21.7799 6.23614 -84.6093
LeftForeArm  50.257 -23.539 -4.37227
LeftHand  0.248299 -10.5334 -3.06506
RightShoulder  0 2.42657e-020 1.07489e-018
RightArm  -50.8144 -29.0228 77.7605
RightForeArm  51.7446 16.2259 2.90947
RightHand  -0.86789 20.5826 -4.40847
LeftUpLeg  3.38292 5.9273 12.0745
LeftLeg  17.6409 -3.89598 -0.969655
LeftFoot  -9.57222 0.0505893 0.604193
LeftToes  -38.6769 8.72033e-007 1.17809e-007
417
root  33.2258 31.177 -71.3045 14.7538 -61.522 -5.01686
RightUpLeg  -34.668 -19.2035 3.30462
RightLeg  45.9008 -2.72382 -2.50323
RightFoot  -11.9527 0.03876 0.747839
RightToes  -24.1262 -0.105635 -0.209142
Spine  5.15228 -1.99692 1.74924
Spine1  9.89696 -4.59484 3.76504
HEad  -0.0572961 48.9884 -19.9561
LeftShoulder1  0 -2.42657e-020 -4.95415e-022
LeftArm  -23.8547 8.40996 -84.1355
LeftForeArm  48.3342 -24.8567 -4.65563
LeftHand  0.243728 -10.3144 -3.07198
RightShoulder  0 2.42657e-020 1.07489e-018
RightArm  -46.6685 -26.038 77.6043
RightForeArm  49.8234 17.9019 3.23604
RightHand  -0.96912 20.5043 -4.9859
LeftUpLeg  3.69645 8.5773 15.2466
LeftLeg  22.5911 -4.37624 -1.50001
LeftFoot  -7.75744 0.0353744 0.521733
LeftToes  -47.242 8.72033e-007 1.17809e-007
